<svg width="340" height="421" viewBox="0 0 340 421" fill="none" xmlns="http://www.w3.org/2000/svg">
<path d="M213.5 210.321C213.5 255.505 177.451 292.12 133 292.12C88.5485 292.12 52.5 255.505 52.5 210.321C52.5 165.137 88.5485 128.521 133 128.521C177.451 128.521 213.5 165.137 213.5 210.321Z" stroke="#BBD0FC"/>
<path d="M265.5 210.829C265.5 284.912 206.394 344.955 133.5 344.955C60.6059 344.955 1.5 284.912 1.5 210.829C1.5 136.746 60.6059 76.7032 133.5 76.7032C206.394 76.7032 265.5 136.746 265.5 210.829Z" stroke="#BBD0FC"/>
<path d="M304.5 210.321C304.5 306.569 227.709 384.58 133 384.58C38.2906 384.58 -38.5 306.569 -38.5 210.321C-38.5 114.073 38.2906 36.0615 133 36.0615C227.709 36.0615 304.5 114.073 304.5 210.321Z" stroke="#BBD0FC"/>
<path d="M339.5 210.321C339.5 326.209 247.039 420.142 133 420.142C18.9607 420.142 -73.5 326.209 -73.5 210.321C-73.5 94.4325 18.9607 0.5 133 0.5C247.039 0.5 339.5 94.4325 339.5 210.321Z" stroke="#BBD0FC"/>
</svg>
