<svg width="77" height="77" viewBox="0 0 77 77" fill="none" xmlns="http://www.w3.org/2000/svg">
<g filter="url(#filter0_d_46_1696)">
<circle cx="36" cy="36" r="36" fill="white"/>
<circle cx="36" cy="36" r="35" stroke="black" stroke-width="2"/>
</g>
<rect width="55" height="55" transform="translate(9 8)" fill="white"/>
<path fill-rule="evenodd" clip-rule="evenodd" d="M22.75 16.0208C22.75 15.7169 22.8707 15.4255 23.0856 15.2106C23.3005 14.9957 23.5919 14.875 23.8958 14.875H49.1042C49.4081 14.875 49.6995 14.9957 49.9144 15.2106C50.1293 15.4255 50.25 15.7169 50.25 16.0208V17.1667H55.9792C56.2831 17.1667 56.5745 17.2874 56.7894 17.5023C57.0043 17.7172 57.125 18.0086 57.125 18.3125V25.1875C57.125 26.707 56.5214 28.1642 55.447 29.2386C54.3725 30.3131 52.9153 30.9167 51.3958 30.9167H49.4674C48.6484 33.2279 47.227 35.2786 45.3502 36.8567C43.4734 38.4347 41.2092 39.483 38.7917 39.8931V46.9583H45.6667C45.9706 46.9583 46.262 47.0791 46.4769 47.2939C46.6918 47.5088 46.8125 47.8003 46.8125 48.1042V54.9792C46.8125 55.2831 46.6918 55.5745 46.4769 55.7894C46.262 56.0043 45.9706 56.125 45.6667 56.125H27.3333C27.0294 56.125 26.738 56.0043 26.5231 55.7894C26.3082 55.5745 26.1875 55.2831 26.1875 54.9792V48.1042C26.1875 47.8003 26.3082 47.5088 26.5231 47.2939C26.738 47.0791 27.0294 46.9583 27.3333 46.9583H34.2083V39.8931C31.7908 39.483 29.5266 38.4347 27.6498 36.8567C25.773 35.2786 24.3516 33.2279 23.5326 30.9167H21.6042C20.0847 30.9167 18.6275 30.3131 17.553 29.2386C16.4786 28.1642 15.875 26.707 15.875 25.1875V18.3125C15.875 18.0086 15.9957 17.7172 16.2106 17.5023C16.4255 17.2874 16.7169 17.1667 17.0208 17.1667H22.75V16.0208ZM50.25 26.3333V19.4583H54.8333V25.1875C54.8333 26.0992 54.4712 26.9735 53.8265 27.6182C53.1819 28.2628 52.3075 28.625 51.3958 28.625H50.25V26.3333ZM22.75 19.4583H18.1667V25.1875C18.1667 26.0992 18.5288 26.9735 19.1735 27.6182C19.8181 28.2628 20.6925 28.625 21.6042 28.625H22.75V19.4583Z" fill="black"/>
<defs>
<filter id="filter0_d_46_1696" x="0" y="0" width="77" height="77" filterUnits="userSpaceOnUse" color-interpolation-filters="sRGB">
<feFlood flood-opacity="0" result="BackgroundImageFix"/>
<feColorMatrix in="SourceAlpha" type="matrix" values="0 0 0 0 0 0 0 0 0 0 0 0 0 0 0 0 0 0 127 0" result="hardAlpha"/>
<feOffset dx="5" dy="5"/>
<feComposite in2="hardAlpha" operator="out"/>
<feColorMatrix type="matrix" values="0 0 0 0 0 0 0 0 0 0 0 0 0 0 0 0 0 0 0.75 0"/>
<feBlend mode="normal" in2="BackgroundImageFix" result="effect1_dropShadow_46_1696"/>
<feBlend mode="normal" in="SourceGraphic" in2="effect1_dropShadow_46_1696" result="shape"/>
</filter>
</defs>
</svg>
