<svg width="21" height="20" viewBox="0 0 21 20" fill="none" xmlns="http://www.w3.org/2000/svg">
<g clip-path="url(#clip0_46_1631)">
<path d="M6.7918 18.125C14.3371 18.125 18.4652 11.8723 18.4652 6.45155C18.4652 6.27577 18.4613 6.09608 18.4535 5.9203C19.2566 5.33955 19.9496 4.62021 20.5 3.79608C19.7521 4.12883 18.958 4.34615 18.1449 4.44061C19.0011 3.92742 19.6421 3.12123 19.9492 2.17147C19.1438 2.6488 18.263 2.98551 17.3445 3.16718C16.7257 2.50963 15.9075 2.07426 15.0164 1.92838C14.1253 1.78249 13.211 1.93421 12.4148 2.36008C11.6186 2.78595 10.9848 3.46225 10.6115 4.28443C10.2382 5.1066 10.1462 6.02885 10.3496 6.90858C8.71874 6.82674 7.12328 6.40309 5.66665 5.66508C4.21002 4.92708 2.92474 3.8912 1.89414 2.6246C1.37033 3.5277 1.21005 4.59637 1.44586 5.61341C1.68167 6.63045 2.29589 7.51954 3.16367 8.09999C2.51219 8.0793 1.87498 7.9039 1.30469 7.58827V7.63905C1.3041 8.58679 1.63175 9.50549 2.23192 10.239C2.8321 10.9725 3.66777 11.4755 4.59687 11.6625C3.99338 11.8276 3.35999 11.8517 2.7457 11.7328C3.00788 12.5479 3.51798 13.2607 4.20481 13.7719C4.89164 14.2831 5.72093 14.5672 6.57695 14.5844C5.12369 15.7259 3.32848 16.3451 1.48047 16.3422C1.15274 16.3417 0.825333 16.3216 0.5 16.282C2.37738 17.4865 4.56128 18.1262 6.7918 18.125Z" fill="#98A2B3"/>
</g>
<defs>
<clipPath id="clip0_46_1631">
<rect width="20" height="20" fill="white" transform="translate(0.5)"/>
</clipPath>
</defs>
</svg>
